<svg xmlns="http://www.w3.org/2000/svg" width="24" height="24" viewBox="0 0 24 24"><g fill="none" fill-rule="evenodd"><path fill="#000" fill-rule="nonzero" d="M20.29 7.258h-9.568v-.42c0-1-.792-1.838-1.806-1.838S7.11 5.806 7.11 6.839v.42h-.665c-.697 0-1.299.45-1.49 1.128l-1.9 6.871c-.127.484-.032.968.254 1.355.285.387.728.613 1.235.613h.76c.254 1 1.14 1.774 2.218 1.774 1.077 0 1.964-.742 2.218-1.774h5.956c.253 1 1.14 1.774 2.217 1.774 1.077 0 1.964-.742 2.218-1.774h1.679c.095 0 .19-.097.19-.194V8.968c0-.936-.76-1.71-1.71-1.71zm-12.768-.42c0-.773.634-1.419 1.394-1.419.76 0 1.394.646 1.394 1.42v.42H7.522v-.42zM4.956 9.936h4.689v2.549H4.227l.729-2.549zm2.566 8.678c-1.045 0-1.9-.871-1.9-1.936 0-1.064.855-1.935 1.9-1.935s1.9.87 1.9 1.935c-.03 1.065-.855 1.936-1.9 1.936zm10.391 0c-1.045 0-1.9-.871-1.9-1.936 0-1.064.855-1.935 1.9-1.935 1.046 0 1.901.87 1.901 1.935-.032 1.065-.855 1.936-1.9 1.936zm3.675-1.774h-1.425v-.162c0-1.29-1.014-2.322-2.281-2.322-1.268 0-2.281 1.032-2.281 2.322v.162H9.803v-.162c0-1.29-1.014-2.322-2.281-2.322-1.267 0-2.281 1.032-2.281 2.322v.162h-.697c-.348 0-.697-.162-.919-.452a1.129 1.129 0 0 1-.19-1l.697-2.484h5.924V9.548H5.051l.285-1.032c.127-.484.57-.839 1.077-.839h13.908c.729 0 1.299.581 1.299 1.323v7.839h-.032zM16.9 8.645h-2.122v1.484H13.32v2.161h1.457v1.484h2.122V12.29h1.458v-2.16h-1.458V8.645zm1.046 1.903v1.355h-1.457v1.484h-1.331v-1.484H13.7v-1.355h1.457V9.065h1.33v1.483h1.458z"/><path fill="#0AB775" fill-rule="nonzero" d="M10.722 7.258v-.42c0-1-.792-1.838-1.806-1.838S7.11 5.806 7.11 6.839v.42h3.612zm-3.2-.42c0-.773.634-1.419 1.394-1.419.76 0 1.394.646 1.394 1.42v.42H7.522v-.42z"/><path fill="#0AB775" d="M16.9 8.645v1.484h1.457v2.161h-1.458v1.484h-2.122V12.29H13.32v-2.16h1.457V8.645h2.122zm1.045 1.903h-1.457V9.065h-1.331v1.483H13.7v1.355h1.457v1.484h1.33v-1.484h1.458v-1.355z"/></g></svg>