<svg xmlns="http://www.w3.org/2000/svg" width="24" height="24" viewBox="0 0 24 24"><g fill="none" fill-rule="evenodd" stroke-linecap="round" stroke-width=".625"><path stroke="#000" d="M20.588 10.297c-.764 0-1.383.637-1.383 1.423v1.297H5.001V9.653c0-.786-.62-1.424-1.383-1.424s-1.382.638-1.382 1.424v8.153H5v-1.931h14.204v1.93h2.766v-6.084c0-.787-.62-1.424-1.383-1.424z"/><path stroke="#000" d="M18.258 11.35v-.624c0-.69-.543-1.249-1.212-1.249h-5.833c-.67 0-1.212.56-1.212 1.249v.624h8.257z"/><path stroke="#0AB775" d="M8.858 10.232a.41.41 0 0 1 0 .568l-.38.39a.382.382 0 0 1-.552 0L6.443 9.664a.41.41 0 0 1 0-.568l.38-.39a.382.382 0 0 1 .552 0l1.483 1.527z"/></g></svg>