<svg xmlns="http://www.w3.org/2000/svg" width="24" height="24" viewBox="0 0 24 24"><g fill="none" fill-rule="evenodd"><path fill="#000" fill-rule="nonzero" d="M19 6.258C19 5.013 17.999 4 16.769 4s-2.231 1.013-2.231 2.258c0 1.138.843 2.08 1.932 2.24l-.105 7.466c0 1.903-1.529 3.432-3.39 3.432-1.775 0-3.233-1.387-3.374-3.13 1.652-.106 2.934-1.386 3.092-3.075.018-.107-.017-.213-.017-.338V6.844c0-1.066-.703-1.955-1.687-2.186a.544.544 0 0 0-.51-.338.57.57 0 0 0-.561.569c0 .302.263.569.58.569a.584.584 0 0 0 .438-.214 1.66 1.66 0 0 1 1.195 1.6v6.027c0 .089 0 .178-.017.285a2.778 2.778 0 0 1-2.759 2.524h-.123c-1.387-.053-2.494-1.138-2.635-2.524V6.844c0-.764.51-1.404 1.195-1.6a.584.584 0 0 0 .44.214.57.57 0 0 0 .561-.57.582.582 0 0 0-.562-.568.563.563 0 0 0-.51.338C6.739 4.87 6 5.778 6 6.844v6.027c0 .107 0 .213.018.32.158 1.6 1.405 2.88 2.986 3.058.14 2.098 1.862 3.751 3.97 3.751 2.196 0 3.988-1.813 3.988-4.036l.106-7.466C18.157 8.356 19 7.396 19 6.258zM16.769 7.91c-.896 0-1.634-.747-1.634-1.653 0-.907.738-1.654 1.634-1.654.896 0 1.634.747 1.634 1.654 0 .906-.738 1.653-1.634 1.653z"/><path stroke="#0AB775" stroke-width=".7" d="M16.779 8.201a1.95 1.95 0 1 1 0-3.9 1.95 1.95 0 0 1 0 3.9z"/><path fill="#0AB775" d="M10.49 5.484a.6.6 0 1 0 0-1.2.6.6 0 0 0 0 1.2zm-2.226 0a.6.6 0 1 0 0-1.2.6.6 0 0 0 0 1.2z"/></g></svg>