<svg xmlns="http://www.w3.org/2000/svg" width="24" height="24" viewBox="0 0 24 24"><g fill="none" fill-rule="evenodd"><path fill="#000" fill-rule="nonzero" d="M3.688 10.18l1.537-1.304v7.365h7.928c0 .042-.02.104-.02.145 0 .042 0 .083-.02.124v.352c0 2.172 1.718 3.931 3.842 3.931s3.843-1.759 3.843-3.93c0-2.173-1.72-3.932-3.843-3.932-.121 0-.243 0-.344.02-.04 0-.08 0-.121.021-.04 0-.101-.041-.142-.041V9l1.497 1.18.526-.642-7.605-6.455-7.584 6.476.506.62zm8.413 5.234h-2.63v-4.759h2.63v4.759zm3.964-1.51l.243-.063c.04 0 .06-.02.101-.02.06-.021.121-.021.182-.021h.08c.082 0 .183-.02.284-.02 1.679 0 3.034 1.386 3.034 3.103 0 1.717-1.355 3.103-3.034 3.103-1.679 0-3.034-1.386-3.034-3.103 0-.104 0-.186.02-.29v-.083a.75.75 0 0 1 .041-.207c0-.02 0-.062.02-.082a3.09 3.09 0 0 1 2.063-2.318zM6.034 8.193l4.732-4.035 4.794 4.075V13.2a3.844 3.844 0 0 0-2.164 2.214h-.486V9.828H8.663v5.586h-2.63v-7.22z"/><path fill="#0AB775" d="M18.275 17.09h-.894v.915a.302.302 0 0 1-.298.305.302.302 0 0 1-.298-.305v-.914h-.745a.302.302 0 0 1-.298-.305c0-.168.134-.305.298-.305h.745v-.762c0-.168.134-.305.298-.305.164 0 .298.137.298.305v.762h.894c.164 0 .298.137.298.305a.302.302 0 0 1-.298.305z"/></g></svg>