<svg xmlns="http://www.w3.org/2000/svg" width="24" height="24" viewBox="0 0 24 24"><g fill="none"><path fill="#000" d="M19.53 8.348h-3.523c.594-.33 1.159-.742 1.566-1.212 1.404-1.62.959-2.948.074-3.653-.517-.41-1.904-1.153-3.623.83-.412.475-.765 1.105-1.024 1.752-.258-.647-.611-1.277-1.024-1.752-1.719-1.983-3.106-1.24-3.623-.83-.885.704-1.33 2.034.074 3.653.407.47.972.881 1.566 1.212H6.47a.46.46 0 0 0-.47.45V20.55c0 .249.21.45.47.45h13.06a.46.46 0 0 0 .47-.45V8.798a.46.46 0 0 0-.47-.45zm-.47 5.77h-5.59v-4.87h5.59v4.87zm-4.313-9.23c.675-.779 1.201-.994 1.586-.994.358 0 .594.187.713.282.715.568.645 1.415-.196 2.385-.923 1.064-2.776 1.726-3.377 1.754-.063-.526.287-2.29 1.274-3.427zM9.15 6.56c-.84-.97-.91-1.817-.196-2.385.246-.196.995-.792 2.3.712.986 1.137 1.336 2.9 1.273 3.427-.602-.028-2.454-.69-3.377-1.754zm3.38 2.687v4.87H6.94v-4.87h5.59zm-5.59 5.77h5.59V20.1H6.94v-5.082zm6.53 5.082v-5.082h5.59V20.1h-5.59z"/><path fill="#0AB775" d="M16.007 8.348c.594-.33 1.159-.742 1.566-1.212 1.404-1.62.959-2.948.074-3.653-.517-.41-1.904-1.153-3.623.83-.412.475-.765 1.105-1.024 1.752-.258-.647-.611-1.277-1.024-1.752-1.719-1.983-3.106-1.24-3.623-.83-.885.704-1.33 2.034.074 3.653.407.47.972.881 1.566 1.212h6.014zm-1.26-3.46c.675-.779 1.201-.994 1.586-.994.358 0 .594.187.713.282.715.568.645 1.415-.196 2.385-.923 1.064-2.776 1.726-3.377 1.754-.063-.526.287-2.29 1.274-3.427zM9.15 6.56c-.84-.97-.91-1.817-.196-2.385.246-.196.995-.792 2.3.712.986 1.137 1.336 2.9 1.273 3.427-.602-.028-2.454-.69-3.377-1.754z"/></g></svg>