<svg xmlns="http://www.w3.org/2000/svg" width="24" height="24" viewBox="0 0 24 24"><g fill="none"><path fill="#000" d="M22.373 17.287l-.181-.169c-.663-.617-1.266-1.318-1.869-1.991a24.008 24.008 0 0 0-1.446-1.57c-.241-.225-.482-.478-.844-.646-.332-.168-.723-.252-1.206-.28-.964-.085-1.476-.029-1.717 0L12.85 2.504a.513.513 0 0 0-.603-.365L2.512 3.991a.79.79 0 0 0-.331.197c-.06.112-.09.224-.06.364l3.104 14.053c.06.224.27.365.512.365h.09l6.028-1.15c.452.785.904 1.71 1.356 2.636.844 1.683 1.627 3.282 2.38 4.18a.505.505 0 0 0 .393.168c.12 0 .21-.028.3-.113.212-.168.272-.448.091-.673-.693-.813-1.476-2.44-2.26-4.01-.844-1.684-1.627-3.282-2.38-4.18-.182-.196-.362-.42-.423-.617-.03-.14-.03-.309.06-.337.091-.084.332-.056.573.028.754.28 1.356.87 1.96 1.459l.12.112a28.416 28.416 0 0 0 2.41 2.16c.121.112.392.337.754.308.392-.028.753-.308.814-.729.06-.28-.03-.533-.06-.701-.03-.14-.09-.28-.121-.42-.301-1.179-.693-2.61-2.08-2.89l-.3-.056h-.031l-.15-.673c.18-.028.602-.056 1.446 0 .331.028.603.084.814.196.21.112.391.28.572.45.482.476.934 1.009 1.386 1.542a25.407 25.407 0 0 0 1.96 2.075l.21.169c.302.28.603.533.784.813.15.337.18 2.188.21 3.198.031.953.031 1.514.091 1.767.06.224.271.392.513.392h.09c.271-.056.452-.308.392-.56-.03-.169-.06-.926-.06-1.6-.06-2.271-.121-3.281-.362-3.674a7.233 7.233 0 0 0-.934-.953zM12.307 4.749a2.613 2.613 0 0 1-1.206-.365 2.26 2.26 0 0 1-.813-.925l1.657-.309.362 1.599zm-7.414-.253c-.03.814-.542 1.543-1.356 1.88l-.332-1.543 1.688-.337zm.904 11.921c.874 0 1.658.449 2.05 1.178l-1.718.337-.332-1.515zm6.54-2.356c-.633-.224-1.205-.196-1.597.112-.392.309-.543.814-.392 1.347.12.392.392.7.603.953.12.14.24.309.361.477l-2.44.477c-.513-1.234-1.87-2.02-3.286-1.936L3.778 7.33c1.326-.449 2.2-1.683 2.14-3.001l3.375-.645c.241.617.663 1.122 1.236 1.515.542.364 1.205.532 1.838.532h.12l2.23 10.154-.06-.14c-.662-.645-1.356-1.318-2.32-1.683zm4.52 3.31c.03.168.09.308.121.449v.056a17.966 17.966 0 0 1-1.115-.982.505.505 0 0 0 .06-.365l-.301-1.318c.723.224.994 1.262 1.236 2.16z"/><path fill="#0AB775" d="M10.462 8.884l-.531.113a.813.813 0 0 0-.202-.261l.671-.143a.224.224 0 0 0-.093-.436l-1.704.362-.81.172a.224.224 0 0 0-.164.263c.025.116.144.198.256.174l.81-.173c.434-.092.654-.017.789.137l-1.537.327c-.112.023-.188.146-.164.262.025.117.145.198.256.174l1.607-.342c.051.309-.016.612-.672.752l-.81.172a.224.224 0 0 0-.169.172c-.01.093.023.178.092.224l2.048 1.39a.21.21 0 0 0 .166.025.21.21 0 0 0 .14-.091.222.222 0 0 0-.064-.306l-1.604-1.088.293-.062c1.006-.214 1.072-.866 1-1.277l.489-.104c.111-.023.188-.146.163-.262-.025-.117-.144-.198-.256-.174z"/></g></svg>